
<svg width="47" height="48" viewBox="0 0 47 48" fill="none" xmlns="http://www.w3.org/2000/svg">
<rect width="47" height="48" rx="13" fill="#29A38D"/>
<path d="M31.8287 31.3492C30.2787 31.3492 29.0181 30.1699 29.0181 28.7199C29.0181 27.2699 30.2787 26.0906 31.8287 26.0906C33.3787 26.0906 34.6394 27.2699 34.6394 28.7199C34.6394 30.1699 33.3787 31.3492 31.8287 31.3492ZM31.8287 27.0572C30.8574 27.0572 30.0514 27.7919 30.0514 28.7199C30.0514 29.6479 30.8367 30.3826 31.8287 30.3826C32.8001 30.3826 33.6061 29.6479 33.6061 28.7199C33.6061 27.7919 32.8001 27.0572 31.8287 27.0572Z" fill="white"/>
<path d="M31.8288 30.0152C31.0641 30.0152 30.4441 29.4352 30.4441 28.7199C30.4441 28.0046 31.0641 27.4246 31.8288 27.4246C32.1181 27.4246 32.3454 27.6372 32.3454 27.9079C32.3454 28.1786 32.1181 28.3912 31.8288 28.3912C31.6221 28.3912 31.4774 28.5459 31.4774 28.7199C31.4774 28.8939 31.6428 29.0486 31.8288 29.0486C32.0148 29.0486 32.1801 28.8939 32.1801 28.7199C32.1801 28.4492 32.4074 28.2366 32.6968 28.2366C32.9861 28.2366 33.2134 28.4492 33.2134 28.7199C33.2134 29.4352 32.5934 30.0152 31.8288 30.0152Z" fill="white"/>
<path d="M14.9647 31.3492C13.4147 31.3492 12.1541 30.1699 12.1541 28.7199C12.1541 27.2699 13.4147 26.0906 14.9647 26.0906C16.5147 26.0906 17.7754 27.2699 17.7754 28.7199C17.7754 30.1699 16.5147 31.3492 14.9647 31.3492ZM14.9647 27.0572C13.9934 27.0572 13.1874 27.7919 13.1874 28.7199C13.1874 29.6479 13.9727 30.3826 14.9647 30.3826C15.9361 30.3826 16.7421 29.6479 16.7421 28.7199C16.7421 27.7919 15.9567 27.0572 14.9647 27.0572Z" fill="white"/>
<path d="M14.9647 30.0152C14.2001 30.0152 13.5801 29.4352 13.5801 28.7199C13.5801 28.0046 14.2001 27.4246 14.9647 27.4246C15.2541 27.4246 15.4814 27.6372 15.4814 27.9079C15.4814 28.1786 15.2541 28.3912 14.9647 28.3912C14.7581 28.3912 14.6134 28.5459 14.6134 28.7199C14.6134 28.8939 14.7787 29.0486 14.9647 29.0486C15.1714 29.0486 15.3161 28.8939 15.3161 28.7199C15.3161 28.4492 15.5434 28.2366 15.8327 28.2366C16.1221 28.2366 16.3494 28.4492 16.3494 28.7199C16.3701 29.4352 15.7294 30.0152 14.9647 30.0152Z" fill="white"/>
<path d="M29.5554 28.7007H17.1348V29.6674H29.5554V28.7007Z" fill="white"/>
<path d="M35.156 29.6673H34.3707V28.7007H35.156C35.4247 28.7007 35.6314 28.5073 35.6314 28.256V19.324C35.6314 18.9567 35.3007 18.6473 34.908 18.6473H11.9474C11.3894 18.6473 10.9347 19.0727 10.9347 19.5947V26.6513C10.9347 27.4247 11.3894 28.1207 12.1127 28.4687C12.4434 28.6233 12.588 28.7007 12.898 28.7007V29.6673C12.3194 29.6673 12.0094 29.5127 11.6374 29.3387C10.5627 28.8167 9.90137 27.792 9.90137 26.6707V19.5947C9.90137 18.5313 10.8107 17.6807 11.9474 17.6807H34.908C35.8794 17.6807 36.6647 18.4153 36.6647 19.324V28.2367C36.6647 29.0293 35.9827 29.6673 35.156 29.6673Z" fill="white"/>
<path d="M30.1134 25.066H13.9521C12.9601 25.066 12.1541 24.312 12.1541 23.384V20.136C12.1541 19.6913 12.5467 19.324 13.0221 19.324H31.1054C31.4774 19.324 31.7874 19.614 31.7874 19.962V23.4806C31.7874 24.3506 31.0434 25.066 30.1134 25.066ZM13.2081 20.2906V23.384C13.2081 23.7706 13.5387 24.0993 13.9727 24.0993H30.1134C30.4647 24.0993 30.7541 23.8286 30.7541 23.5V20.2906H13.2081Z" fill="white"/>
<path d="M36.5199 25.066H33.9779C32.9859 25.066 32.1799 24.312 32.1799 23.384V20.136C32.1799 19.6913 32.5726 19.324 33.0479 19.324H36.5199V25.066ZM33.2133 20.2906V23.384C33.2133 23.7706 33.5439 24.0993 33.9779 24.0993H35.4866V20.2906H33.2133Z" fill="white"/>
<path d="M20.5653 19.8074H19.532V29.184H20.5653V19.8074Z" fill="white"/>
<path d="M26.8273 19.8074H25.7939V29.184H26.8273V19.8074Z" fill="white"/>
</svg>
