<svg width="30" height="31" viewBox="0 0 30 31" fill="none" xmlns="http://www.w3.org/2000/svg">
<path d="M9.48596 5.82979C9.48596 5.42979 10.0314 5.10553 10.4172 5.10553C10.8029 5.10553 11.3483 5.42979 11.3483 5.82979V7.27831H9.48596V5.82979Z" fill="#4F4F4F"/>
<path d="M18.7979 5.82979C18.7979 5.42979 19.3434 5.10553 19.7291 5.10553C20.1148 5.10553 20.6603 5.42979 20.6603 5.82979V7.27831H18.7979V5.82979Z" fill="#4F4F4F"/>
<path fill-rule="evenodd" clip-rule="evenodd" d="M9.48596 7.27831H7.39078C7.00506 7.27831 6.69238 7.60258 6.69238 8.00257V23.9363C6.69238 24.3363 7.00507 24.6606 7.39078 24.6606H22.7555C23.1412 24.6606 23.4539 24.3363 23.4539 23.9363V8.00257C23.4539 7.60258 23.1412 7.27831 22.7555 7.27831H20.6603H18.7979H11.3483H9.48596ZM22.0571 11.6239H8.08917V23.2121H22.0571V11.6239Z" fill="#4F4F4F"/>
<path d="M9.48633 14.8831C9.48633 14.1116 10.1117 13.4863 10.8831 13.4863C11.6545 13.4863 12.2799 14.1116 12.2799 14.8831C12.2799 15.6545 11.6545 16.2798 10.8831 16.2798C10.1117 16.2798 9.48633 15.6545 9.48633 14.8831Z" fill="#4F4F4F"/>
<path d="M20.6608 17.6766C20.6608 16.9052 20.0354 16.2798 19.264 16.2798C18.4926 16.2798 17.8672 16.9052 17.8672 17.6766C17.8672 18.4481 18.4926 19.0734 19.264 19.0734C20.0354 19.0734 20.6608 18.4481 20.6608 17.6766Z" fill="#4F4F4F"/>
</svg>
