<svg width="30" height="31" viewBox="0 0 30 31" fill="none" xmlns="http://www.w3.org/2000/svg">
<path fill-rule="evenodd" clip-rule="evenodd" d="M4.17163 15.4797C3.92497 15.5761 3.82392 15.8709 3.95958 16.0984L5.58735 18.8276C5.82052 19.2186 6.30216 19.3836 6.72613 19.2179L22.4652 13.0656C23.2006 12.7781 23.5638 11.9489 23.2763 11.2134C22.9775 10.449 22.0978 10.0925 21.3511 10.4333L16.6965 12.5574L10.2059 6.59219C9.93662 6.34468 9.54986 6.27218 9.2092 6.40534C8.63836 6.62848 8.42113 7.32298 8.76308 7.83162L12.93 14.0297L6.55798 16.9153L4.57323 15.5276C4.45579 15.4455 4.30509 15.4275 4.17163 15.4797ZM24.0851 22.1252H4.96775V23.5958H24.0851V22.1252Z" fill="#4F4F4F"/>
</svg>
