<svg width="47" height="48" viewBox="0 0 47 48" fill="none" xmlns="http://www.w3.org/2000/svg">
<rect width="47" height="48" rx="13" fill="#F0BB1F"/>
<path d="M24 15.6666C20.775 15.6666 18.1667 18.275 18.1667 21.5C18.1667 25.875 24 32.3333 24 32.3333C24 32.3333 29.8334 25.875 29.8334 21.5C29.8334 18.275 27.225 15.6666 24 15.6666ZM19.8334 21.5C19.8334 19.2 21.7 17.3333 24 17.3333C26.3 17.3333 28.1667 19.2 28.1667 21.5C28.1667 23.9 25.7667 27.4916 24 29.7333C22.2667 27.5083 19.8334 23.875 19.8334 21.5Z" fill="#FAFAFA"/>
<path d="M24 23.5833C25.1506 23.5833 26.0834 22.6506 26.0834 21.5C26.0834 20.3494 25.1506 19.4166 24 19.4166C22.8494 19.4166 21.9167 20.3494 21.9167 21.5C21.9167 22.6506 22.8494 23.5833 24 23.5833Z" fill="#FAFAFA"/>
</svg>
