
<svg width="92" height="92" viewBox="0 0 92 92" fill="none" xmlns="http://www.w3.org/2000/svg">
<path d="M91.9998 39.4682C91.9998 17.6705 74.2486 0 52.3515 0C30.4543 0 12.7031 17.6705 12.7031 39.4682C12.7031 61.2659 30.4543 78.9365 52.3515 78.9365C56.9474 78.9365 61.3593 78.1554 65.4641 76.7239L77.5599 82.5655V69.9333C86.3782 62.6942 91.9998 51.7347 91.9998 39.4682Z" fill="url(#paint0_linear)"/>
<path d="M34.0048 45.8488C37.093 45.8488 39.5965 43.3453 39.5965 40.2571C39.5965 37.1689 37.093 34.6654 34.0048 34.6654C30.9166 34.6654 28.4131 37.1689 28.4131 40.2571C28.4131 43.3453 30.9166 45.8488 34.0048 45.8488Z" fill="#FFC0F9"/>
<path d="M52.3524 45.8479C55.4406 45.8479 57.9441 43.3445 57.9441 40.2562C57.9441 37.168 55.4406 34.6646 52.3524 34.6646C49.2642 34.6646 46.7607 37.168 46.7607 40.2562C46.7607 43.3445 49.2642 45.8479 52.3524 45.8479Z" fill="#FFC0F9"/>
<path d="M70.7001 45.848C73.7883 45.848 76.2918 43.3445 76.2918 40.2563C76.2918 37.1681 73.7883 34.6646 70.7001 34.6646C67.6119 34.6646 65.1084 37.1681 65.1084 40.2563C65.1084 43.3445 67.6119 45.848 70.7001 45.848Z" fill="#FFC0F9"/>
<path d="M0 70.7534C0 60.0074 8.75114 51.2959 19.5462 51.2959C30.3413 51.2959 39.0926 60.0074 39.0926 70.7534C39.0926 81.4996 30.3415 90.211 19.5462 90.211C17.2805 90.211 15.1054 89.826 13.0818 89.1201L7.11886 92V85.7724C2.7715 82.2036 0 76.8008 0 70.7534H0Z" fill="url(#paint1_linear)"/>
<defs>
<linearGradient id="paint0_linear" x1="76.6364" y1="78.8828" x2="34.8591" y2="6.91796" gradientUnits="userSpaceOnUse">
<stop stop-color="#AC3CFF"/>
<stop offset="1" stop-color="#F478FF"/>
</linearGradient>
<linearGradient id="paint1_linear" x1="31.5186" y1="90.1845" x2="10.9228" y2="54.7064" gradientUnits="userSpaceOnUse">
<stop stop-color="#FFAF83"/>
<stop offset="1" stop-color="#FFEAB5"/>
</linearGradient>
</defs>
</svg>
