<svg width="27" height="27" viewBox="0 0 27 27" fill="none" xmlns="http://www.w3.org/2000/svg">
<g clipPath="url(#clip0)">
<path d="M25.3367 6.55828V20.8814C25.3367 23.6936 23.0569 25.9734 20.2447 25.9734H5.9216C3.10936 25.9734 0.829628 23.6936 0.829628 20.8814V6.55828C0.829628 3.74604 3.10936 1.46631 5.9216 1.46631H20.2447C23.0569 1.46631 25.3367 3.74604 25.3367 6.55828ZM10.4872 20.6636C16.5318 22.7492 22.1125 17.1685 20.0269 11.1239C19.3242 9.08662 17.7165 7.47879 15.6792 6.77607C9.63445 4.69049 4.05381 10.2711 6.13939 16.3159C6.84211 18.3532 8.44979 19.9609 10.4872 20.6636ZM4.57943 6.30938C4.67561 6.81301 5.09233 7.10604 5.52342 7.10604C5.78578 7.10604 6.05323 6.99774 6.25801 6.76276C6.2761 6.74196 6.293 6.71968 6.30796 6.69649C6.51932 6.3734 6.5259 5.98958 6.34626 5.67831C6.21911 5.45798 6.01389 5.30062 5.76813 5.2348C5.52267 5.16869 5.266 5.20265 5.04597 5.32994C4.73454 5.50943 4.54846 5.84524 4.5697 6.23025C4.5712 6.25658 4.57434 6.28335 4.57943 6.30938Z" fill="#4F4F4F"/>
<path d="M13.0819 7.76611C16.3648 7.76611 19.0354 10.4367 19.0354 13.7197C19.0354 17.0026 16.3648 19.6732 13.0819 19.6732C9.79889 19.6732 7.1283 17.0026 7.1283 13.7197C7.1283 10.4367 9.79889 7.76611 13.0819 7.76611Z" fill="#4F4F4F"/>
</g>
<defs>
<clipPath id="clip0">
<rect width="26.1408" height="26.1408" fill="white" transform="matrix(-1 0 0 1 26.1409 0.662109)"/>
</clipPath>
</defs>
</svg>
