<svg width="27" height="26" viewBox="0 0 27 26" fill="none" xmlns="http://www.w3.org/2000/svg">
<g clipPath="url(#clip0)">
<path d="M26.1408 16.0753V25.4378H20.7131V16.7024C20.7131 14.508 19.928 13.0104 17.9634 13.0104C16.4636 13.0104 15.5711 14.0197 15.1784 14.996C15.0352 15.345 14.9984 15.8308 14.9984 16.3193V25.4378H9.56882C9.56882 25.4378 9.64195 10.6429 9.56882 9.11004H14.9979V11.4244C14.9869 11.4417 14.9725 11.4604 14.9622 11.4772H14.9979V11.4244C15.7192 10.3135 17.0073 8.72645 19.8906 8.72645C23.4629 8.72639 26.1408 11.0601 26.1408 16.0753ZM3.88927 1.23926C2.03182 1.23926 0.816895 2.4576 0.816895 4.05975C0.816895 5.627 1.99667 6.88231 3.8172 6.88231H3.85347C5.74689 6.88231 6.92443 5.62723 6.92443 4.05975C6.88875 2.4576 5.74689 1.23926 3.88927 1.23926ZM1.13936 25.4378H6.56687V9.11004H1.13936V25.4378Z" fill="#4F4F4F"/>
</g>
<defs>
<clipPath id="clip0">
<rect width="25.3239" height="25.3239" fill="white" transform="translate(0.816895 0.67627)"/>
</clipPath>
</defs>
</svg>
