<svg width="18" height="18" viewBox="0 0 18 18" fill="none" xmlns="http://www.w3.org/2000/svg">
<path d="M8.97086 1.89949L6.14243 4.72792L7.55665 6.14213L10.3851 3.31371C11.5518 2.14698 13.461 2.14698 14.6277 3.31371C15.7944 4.48043 15.7944 6.38962 14.6277 7.55635L11.7993 10.3848L13.2135 11.799L16.0419 8.97056C17.9935 7.01895 17.9935 3.85111 16.0419 1.89949C14.0903 -0.0521203 10.9225 -0.0521205 8.97086 1.89949ZM10.3851 11.799L7.55665 14.6274C6.38992 15.7941 4.48073 15.7941 3.31401 14.6274C2.14728 13.4607 2.14728 11.5515 3.31401 10.3848L6.14243 7.55635L4.72822 6.14213L1.89979 8.97056C-0.051823 10.9222 -0.051823 14.09 1.89979 16.0416C3.85141 17.9932 7.01924 17.9932 8.97086 16.0416L11.7993 13.2132L10.3851 11.799ZM5.43533 11.0919L11.0922 5.43503L12.5064 6.84924L6.84954 12.5061L5.43533 11.0919Z" fill="#828282"/>
</svg>
