<svg width="197" height="251" viewBox="0 0 197 251" fill="none" xmlns="http://www.w3.org/2000/svg">
<circle cx="109.904" cy="237.834" r="7.15878" fill="url(#paint0_linear)"/>
<circle cx="109.904" cy="237.834" r="6.26393" stroke="#393956" strokeOpacity="0.5" strokeWidth="1.7897"/>
<circle r="7.15878" transform="matrix(-1 0 0 1 157.555 237.834)" fill="url(#paint1_linear)"/>
<circle r="6.26393" transform="matrix(-1 0 0 1 157.555 237.834)" stroke="#393956" strokeOpacity="0.5" strokeWidth="1.7897"/>
<circle cx="89.7697" cy="237.834" r="7.15878" fill="url(#paint2_linear)"/>
<circle cx="89.7697" cy="237.834" r="6.26393" stroke="#393956" strokeOpacity="0.5" strokeWidth="1.7897"/>
<circle r="7.15878" transform="matrix(-1 0 0 1 179.925 237.834)" fill="url(#paint3_linear)"/>
<circle r="6.26393" transform="matrix(-1 0 0 1 179.925 237.834)" stroke="#393956" strokeOpacity="0.5" strokeWidth="1.7897"/>
<rect x="74.5573" y="89.2886" width="112.303" height="143.176" rx="14.3176" fill="url(#paint4_linear)"/>
<path d="M74.5573 101.922C74.5573 94.9446 80.2133 89.2886 87.1904 89.2886H180.149C183.856 89.2886 186.861 92.2934 186.861 95.9999C186.861 99.7065 183.856 102.711 180.149 102.711H75.3468C74.9108 102.711 74.5573 102.358 74.5573 101.922Z" fill="#5CD6C0"/>
<path d="M74.5573 219.831C74.5573 226.808 80.2133 232.464 87.1904 232.464H180.149C183.856 232.464 186.861 229.46 186.861 225.753C186.861 222.046 183.856 219.042 180.149 219.042H75.3468C74.9108 219.042 74.5573 219.395 74.5573 219.831Z" fill="#24AD94"/>
<path d="M156.883 101.635C156.883 94.3222 163.293 89.2886 171.201 89.2886H178.807C186.714 89.2886 193.125 94.3222 193.125 101.635V220.117C193.125 227.431 186.714 232.464 178.807 232.464H171.201C163.293 232.464 156.883 227.431 156.883 220.117V101.635Z" fill="url(#paint5_linear)"/>
<path d="M178.807 89.2886H171.201C163.293 89.2886 156.883 94.3222 156.883 101.635V102.711H193.125V101.635C193.125 94.3222 186.714 89.2886 178.807 89.2886Z" fill="#1FAD94"/>
<path d="M178.807 232.464H171.201C163.293 232.464 156.883 227.431 156.883 220.118V219.042H193.125V220.118C193.125 227.431 186.714 232.464 178.807 232.464Z" fill="#149F88"/>
<rect opacity="0.5" x="81.7162" y="111.66" width="3.57939" height="98.4332" rx="1.78969" fill="url(#paint6_linear)"/>
<rect opacity="0.5" x="89.7699" y="111.66" width="3.57939" height="98.4332" rx="1.78969" fill="url(#paint7_linear)"/>
<rect opacity="0.5" x="97.8234" y="111.66" width="3.57939" height="98.4332" rx="1.78969" fill="url(#paint8_linear)"/>
<rect opacity="0.5" x="105.877" y="111.66" width="3.57939" height="98.4332" rx="1.78969" fill="url(#paint9_linear)"/>
<rect opacity="0.5" x="113.931" y="111.66" width="3.57939" height="98.4332" rx="1.78969" fill="url(#paint10_linear)"/>
<rect opacity="0.5" x="121.984" y="111.66" width="3.57939" height="98.4332" rx="1.78969" fill="url(#paint11_linear)"/>
<rect opacity="0.5" x="130.038" y="111.66" width="3.57939" height="98.4332" rx="1.78969" fill="url(#paint12_linear)"/>
<rect opacity="0.5" x="138.091" y="111.66" width="3.57939" height="98.4332" rx="1.78969" fill="url(#paint13_linear)"/>
<rect opacity="0.5" x="146.145" y="111.66" width="3.57939" height="98.4332" rx="1.78969" fill="url(#paint14_linear)"/>
<path d="M175.662 143.649C175.319 141.508 176.956 139.4 179.124 139.4C180.535 139.4 181.768 140.316 182.048 141.698C182.573 144.29 183.281 149.06 183.281 155.955C183.281 162.849 182.573 167.62 182.048 170.211C181.768 171.593 180.535 172.509 179.124 172.509C176.956 172.509 175.319 170.401 175.662 168.26C176.113 165.434 176.57 161.265 176.57 155.955C176.57 150.644 176.113 146.475 175.662 143.649Z" fill="url(#paint15_linear)"/>
<path d="M178.199 174.27C179.899 174.5 182.486 173.442 182.695 171.739C182.759 171.214 182.61 170.68 182.193 170.354C181.567 169.866 180.44 169.206 178.748 168.999C177.056 168.792 175.803 169.16 175.078 169.483C174.595 169.699 174.321 170.181 174.257 170.706C174.048 172.409 176.304 174.06 178.01 174.247C178.041 174.251 178.073 174.254 178.104 174.258C178.136 174.262 178.167 174.266 178.199 174.27Z" fill="#4CE0C5"/>
<path d="M178.2 138.214C176.499 138.441 174.282 140.144 174.53 141.841C174.606 142.365 174.891 142.841 175.379 143.045C176.112 143.351 177.373 143.69 179.06 143.444C180.746 143.198 181.857 142.512 182.472 142.009C182.882 141.674 183.018 141.137 182.942 140.613C182.694 138.916 180.083 137.918 178.388 138.187C178.357 138.192 178.326 138.197 178.294 138.201C178.263 138.206 178.231 138.21 178.2 138.214Z" fill="#4CE0C5"/>
<rect x="126" y="48" width="5" height="41" fill="url(#paint16_linear)"/>
<rect x="126" y="48" width="5" height="41" fill="url(#paint17_linear)"/>
<rect x="157" y="48" width="6" height="41" fill="url(#paint18_linear)"/>
<rect x="157" y="48" width="6" height="41" fill="url(#paint19_linear)"/>
<path d="M136.302 38.1588C135.808 38.1588 135.407 37.7581 135.407 37.2639V34.5794C135.407 32.6025 137.009 31 138.986 31H149.277C151.254 31 152.856 32.6025 152.856 34.5794V37.2639C152.856 37.7581 152.456 38.1588 151.962 38.1588H136.302Z" fill="url(#paint20_linear)"/>
<path d="M125.563 53.3714C125.069 53.3714 124.669 52.9707 124.669 52.4765V36.8167C124.669 34.8399 126.271 33.2373 128.248 33.2373H160.015C161.992 33.2373 163.595 34.8399 163.595 36.8167V52.4765C163.595 52.9707 163.194 53.3714 162.7 53.3714H157.331C156.836 53.3714 156.436 52.9707 156.436 52.4765V42.1858C156.436 41.1974 155.634 40.3961 154.646 40.3961H133.617C132.629 40.3961 131.827 41.1974 131.827 42.1858V52.4765C131.827 52.9707 131.427 53.3714 130.933 53.3714H125.563Z" fill="url(#paint21_linear)"/>
<path d="M108.585 226.648V178.774C108.585 146.335 90.7904 138.505 66.0799 138.505H57.1314V183.248V227.99C57.1314 237.874 56.1957 245.887 66.0799 245.887H92.9253C102.81 245.887 108.585 236.532 108.585 226.648Z" fill="url(#paint22_linear)"/>
<path d="M52.6334 138.729C51.645 138.729 50.8438 139.531 50.8438 140.519C50.8438 141.508 51.6451 142.309 52.6335 142.309L52.6334 138.729ZM68.6733 140.821L68.709 139.032L68.6733 140.821ZM98.2707 170.496C98.2707 171.485 99.072 172.286 100.06 172.286C101.049 172.286 101.85 171.485 101.85 170.496H98.2707ZM52.6335 142.309C53.3078 142.309 60.3043 142.444 68.6375 142.611L68.709 139.032C60.4144 138.866 53.3552 138.729 52.6334 138.729L52.6335 142.309ZM68.6375 142.611C84.5596 142.929 98.2707 154.922 98.2707 170.496H101.85C101.85 152.632 86.2194 139.382 68.709 139.032L68.6375 142.611Z" fill="#D6B34F"/>
<path d="M75.8994 202.487H110.351C111.339 202.487 112.141 203.288 112.141 204.277V227.99C112.141 236.886 104.929 244.097 96.0335 244.097H75.8994V202.487Z" fill="url(#paint23_linear)" stroke="url(#paint24_linear)" strokeWidth="3.57939"/>
<path d="M10.576 172.062C10.576 154.518 24.7986 140.295 42.3431 140.295H55.7658C73.3103 140.295 87.5329 154.518 87.5329 172.062V227.99C87.5329 236.886 80.3214 244.097 71.4256 244.097H26.6832C17.7875 244.097 10.576 236.886 10.576 227.99V172.062Z" fill="url(#paint25_linear)" stroke="url(#paint26_linear)" strokeWidth="3.57939"/>
<path fill-rule="evenodd" clip-rule="evenodd" d="M100.852 169.377C99.9688 169.377 99.2176 170.022 99.0833 170.895L97.8442 178.949C97.6775 180.033 98.5162 181.01 99.6131 181.01H102.6C103.697 181.01 104.535 180.033 104.369 178.949L103.13 170.895C102.995 170.022 102.244 169.377 101.361 169.377H100.852ZM100.113 177.431C99.9081 177.431 99.7291 177.571 99.6793 177.77L99.4556 178.665C99.385 178.947 99.5986 179.221 99.8897 179.221H102.323C102.614 179.221 102.828 178.947 102.757 178.665L102.533 177.77C102.484 177.571 102.305 177.431 102.099 177.431H100.113Z" fill="url(#paint27_linear)"/>
<path d="M11.918 212.461C11.918 200.281 23.2444 190.406 37.2162 190.406H51.3582C68.1244 190.406 81.7161 197.781 81.7161 212.398V235.275C81.7161 240.147 77.1855 244.097 71.5968 244.097H16.9776C14.1832 244.097 11.918 242.122 11.918 239.686V212.461Z" fill="url(#paint28_linear)"/>
<path d="M7.06368 211.738C7.06368 202.262 14.7452 194.58 24.2209 194.58H51.8837C61.3594 194.58 69.041 202.262 69.041 211.738V238.227C69.041 239.793 67.771 241.063 66.2043 241.063H9.9004C8.33372 241.063 7.06368 239.793 7.06368 238.227V211.738Z" fill="url(#paint29_linear)" stroke="url(#paint30_linear)" strokeWidth="3.87358"/>
<path opacity="0.5" d="M5 211L71 211" stroke="#C49828" strokeWidth="3.57939"/>
<path fill-rule="evenodd" clip-rule="evenodd" d="M63.07 210.541C61.981 210.541 61.055 211.335 60.89 212.412L59.3712 222.318C59.1665 223.654 60.2 224.858 61.5513 224.858H65.1922C66.5435 224.858 67.577 223.654 67.3723 222.318L65.8535 212.412C65.6885 211.335 64.7625 210.541 63.6735 210.541H63.07ZM62.188 220.372C61.9349 220.372 61.7142 220.544 61.653 220.79L61.379 221.89C61.2923 222.238 61.5555 222.574 61.914 222.574H64.8927C65.2512 222.574 65.5144 222.238 65.4277 221.89L65.1537 220.79C65.0925 220.544 64.8719 220.372 64.6187 220.372H62.188Z" fill="url(#paint31_linear)"/>
<defs>
<linearGradient id="paint0_linear" x1="109.904" y1="230.675" x2="109.904" y2="244.992" gradientUnits="userSpaceOnUse">
<stop stopColor="#8CABCA"/>
<stop offset="1" stopColor="#4E8393"/>
</linearGradient>
<linearGradient id="paint1_linear" x1="7.15878" y1="0" x2="7.15878" y2="14.3176" gradientUnits="userSpaceOnUse">
<stop stopColor="#8CABCA"/>
<stop offset="1" stopColor="#4E8393"/>
</linearGradient>
<linearGradient id="paint2_linear" x1="89.7697" y1="230.675" x2="89.7697" y2="244.992" gradientUnits="userSpaceOnUse">
<stop stopColor="#8CABCA"/>
<stop offset="1" stopColor="#4E8393"/>
</linearGradient>
<linearGradient id="paint3_linear" x1="7.15878" y1="0" x2="7.15878" y2="14.3176" gradientUnits="userSpaceOnUse">
<stop stopColor="#8CABCA"/>
<stop offset="1" stopColor="#4E8393"/>
</linearGradient>
<linearGradient id="paint4_linear" x1="89.3222" y1="89.2886" x2="130.709" y2="232.464" gradientUnits="userSpaceOnUse">
<stop stopColor="#5CD6C0"/>
<stop offset="1" stopColor="#1FB297"/>
</linearGradient>
<linearGradient id="paint5_linear" x1="156.883" y1="174.747" x2="201.936" y2="172.263" gradientUnits="userSpaceOnUse">
<stop stopColor="#12A58B"/>
<stop offset="1" stopColor="#22C3B3"/>
</linearGradient>
<linearGradient id="paint6_linear" x1="81.7162" y1="160.069" x2="85.2956" y2="160.069" gradientUnits="userSpaceOnUse">
<stop stopColor="#29A38D"/>
<stop offset="1" stopColor="#22C3A6"/>
</linearGradient>
<linearGradient id="paint7_linear" x1="89.7699" y1="160.069" x2="93.3493" y2="160.069" gradientUnits="userSpaceOnUse">
<stop stopColor="#29A38D"/>
<stop offset="1" stopColor="#22C3A6"/>
</linearGradient>
<linearGradient id="paint8_linear" x1="97.8234" y1="160.069" x2="101.403" y2="160.069" gradientUnits="userSpaceOnUse">
<stop stopColor="#29A38D"/>
<stop offset="1" stopColor="#22C3A6"/>
</linearGradient>
<linearGradient id="paint9_linear" x1="105.877" y1="160.069" x2="109.456" y2="160.069" gradientUnits="userSpaceOnUse">
<stop stopColor="#29A38D"/>
<stop offset="1" stopColor="#22C3A6"/>
</linearGradient>
<linearGradient id="paint10_linear" x1="113.931" y1="160.069" x2="117.51" y2="160.069" gradientUnits="userSpaceOnUse">
<stop stopColor="#29A38D"/>
<stop offset="1" stopColor="#22C3A6"/>
</linearGradient>
<linearGradient id="paint11_linear" x1="121.984" y1="160.069" x2="125.563" y2="160.069" gradientUnits="userSpaceOnUse">
<stop stopColor="#29A38D"/>
<stop offset="1" stopColor="#22C3A6"/>
</linearGradient>
<linearGradient id="paint12_linear" x1="130.038" y1="160.069" x2="133.617" y2="160.069" gradientUnits="userSpaceOnUse">
<stop stopColor="#29A38D"/>
<stop offset="1" stopColor="#22C3A6"/>
</linearGradient>
<linearGradient id="paint13_linear" x1="138.091" y1="160.069" x2="141.671" y2="160.069" gradientUnits="userSpaceOnUse">
<stop stopColor="#29A38D"/>
<stop offset="1" stopColor="#22C3A6"/>
</linearGradient>
<linearGradient id="paint14_linear" x1="146.145" y1="160.069" x2="149.724" y2="160.069" gradientUnits="userSpaceOnUse">
<stop stopColor="#29A38D"/>
<stop offset="1" stopColor="#22C3A6"/>
</linearGradient>
<linearGradient id="paint15_linear" x1="179.031" y1="139.4" x2="179.031" y2="172.509" gradientUnits="userSpaceOnUse">
<stop stopColor="#5CD6C0"/>
<stop offset="1" stopColor="#22C3A6"/>
</linearGradient>
<linearGradient id="paint16_linear" x1="126" y1="69.3017" x2="131" y2="69.3017" gradientUnits="userSpaceOnUse">
<stop stopColor="#C4C4C4"/>
<stop offset="1" stopColor="#C4C4C4" stopOpacity="0"/>
</linearGradient>
<linearGradient id="paint17_linear" x1="126" y1="68.5" x2="131" y2="68.5" gradientUnits="userSpaceOnUse">
<stop stopColor="#B0C6DC"/>
<stop offset="0.604167" stopColor="#A5BBCB"/>
<stop offset="0.760417" stopColor="#95ABB3"/>
<stop offset="1" stopColor="#91A7AD"/>
</linearGradient>
<linearGradient id="paint18_linear" x1="157" y1="69.3017" x2="163" y2="69.3017" gradientUnits="userSpaceOnUse">
<stop stopColor="#C4C4C4"/>
<stop offset="1" stopColor="#C4C4C4" stopOpacity="0"/>
</linearGradient>
<linearGradient id="paint19_linear" x1="157" y1="68.5" x2="163" y2="68.5" gradientUnits="userSpaceOnUse">
<stop stopColor="#B0C6DC"/>
<stop offset="0.604167" stopColor="#A5BBCB"/>
<stop offset="0.760417" stopColor="#95ABB3"/>
<stop offset="1" stopColor="#91A7AD"/>
</linearGradient>
<linearGradient id="paint20_linear" x1="135.854" y1="31.4474" x2="153.304" y2="32.7897" gradientUnits="userSpaceOnUse">
<stop stopColor="#6B94BD"/>
<stop offset="0.375" stopColor="#5E8DBA"/>
<stop offset="0.719177" stopColor="#4B78A0"/>
<stop offset="1" stopColor="#254F74"/>
</linearGradient>
<linearGradient id="paint21_linear" x1="124.669" y1="43.3043" x2="163.595" y2="43.3043" gradientUnits="userSpaceOnUse">
<stop stopColor="#5E87B0"/>
<stop offset="0.411458" stopColor="#5A88B2"/>
<stop offset="0.92626" stopColor="#49799C"/>
<stop offset="0.952589" stopColor="#336375"/>
<stop offset="1" stopColor="#19414D"/>
</linearGradient>
<linearGradient id="paint22_linear" x1="82.8464" y1="138.505" x2="82.8464" y2="245.887" gradientUnits="userSpaceOnUse">
<stop stopColor="#ECD55D"/>
<stop offset="1" stopColor="#D99126"/>
</linearGradient>
<linearGradient id="paint23_linear" x1="94.0201" y1="200.697" x2="94.0201" y2="245.887" gradientUnits="userSpaceOnUse">
<stop stopColor="#CE9B18"/>
<stop offset="1" stopColor="#EEC26D"/>
</linearGradient>
<linearGradient id="paint24_linear" x1="94.0201" y1="200.697" x2="94.0201" y2="245.887" gradientUnits="userSpaceOnUse">
<stop stopColor="#E6A84C"/>
<stop offset="1" stopColor="#EDC282" stopOpacity="0"/>
</linearGradient>
<linearGradient id="paint25_linear" x1="35.1843" y1="142.085" x2="76.571" y2="245.887" gradientUnits="userSpaceOnUse">
<stop stopColor="#F2E28D"/>
<stop offset="0.357212" stopColor="#E9D077"/>
<stop offset="1" stopColor="#E29B5A"/>
</linearGradient>
<linearGradient id="paint26_linear" x1="71.0189" y1="245.887" x2="-14.4727" y2="187.959" gradientUnits="userSpaceOnUse">
<stop stopColor="#EBBA70"/>
<stop offset="1" stopColor="#EEF4AF"/>
</linearGradient>
<linearGradient id="paint27_linear" x1="104.473" y1="181.532" x2="97.9556" y2="168.935" gradientUnits="userSpaceOnUse">
<stop stopColor="#FFCC68"/>
<stop offset="1" stopColor="#FFEEA8"/>
</linearGradient>
<linearGradient id="paint28_linear" x1="68.5171" y1="193.091" x2="14.3788" y2="244.097" gradientUnits="userSpaceOnUse">
<stop stopColor="#E9D155"/>
<stop offset="0.473958" stopColor="#E3A342"/>
<stop offset="0.6808" stopColor="#E3955D"/>
<stop offset="1" stopColor="#E9B476"/>
</linearGradient>
<linearGradient id="paint29_linear" x1="26.7114" y1="194.322" x2="38.971" y2="247.935" gradientUnits="userSpaceOnUse">
<stop stopColor="#F2E28D"/>
<stop offset="0.357212" stopColor="#E9D077"/>
<stop offset="1" stopColor="#E29B5A"/>
</linearGradient>
<linearGradient id="paint30_linear" x1="56.0117" y1="243" x2="13.4385" y2="192.702" gradientUnits="userSpaceOnUse">
<stop stopColor="#EBBA70"/>
<stop offset="1" stopColor="#EEF4AF"/>
</linearGradient>
<linearGradient id="paint31_linear" x1="67.5" y1="225.5" x2="59.4619" y2="210.02" gradientUnits="userSpaceOnUse">
<stop stopColor="#FFCC68"/>
<stop offset="1" stopColor="#FFEEA8"/>
</linearGradient>
</defs>
</svg>
