<svg width="464" height="464" viewBox="0 0 464 464" fill="none" xmlns="http://www.w3.org/2000/svg">
<path d="M177.625 153.701C173.005 153.701 168.109 153.701 163.214 154.243H162.399C73.2257 162.672 0 247.318 0 341.656C0 451.224 101.773 464 177.625 464C252.936 464 340.75 452.583 352.984 362.592C365.76 257.102 282.024 153.701 177.625 153.701Z" fill="url(#paint0_linear)"/>
<path d="M271.964 45.132L244.776 127.601H110.474L83.2867 45.132C81.6512 41.0538 82.469 36.4305 84.9152 32.8976C87.6339 29.3646 91.712 27.1875 96.0627 27.1875H139.29C144.728 11.4166 159.953 0 177.625 0C195.297 0 210.25 11.4166 215.96 27.1875H259.188C263.538 27.1875 267.617 29.3646 270.335 32.8976C272.781 36.4305 273.599 41.0538 271.964 45.132Z" fill="url(#paint1_linear)"/>
<path d="M218.133 345.734C218.133 363.406 206.989 378.087 191.218 383.797V396.031C191.218 403.646 185.239 409.625 177.624 409.625C170.01 409.625 164.03 403.646 164.03 396.031V384.069C148.26 378.359 136.57 363.406 136.57 345.734C136.57 338.123 142.822 332.141 150.164 332.141C157.779 332.141 163.758 338.123 163.758 345.734C163.758 353.076 170.01 359.328 177.352 359.328H177.624C185.239 359.056 190.945 353.076 190.945 345.734C190.945 338.123 185.239 332.413 177.624 332.141H177.352C155.06 332.141 136.57 313.651 136.57 291.359C136.57 273.415 148.263 258.462 164.03 253.024V232.906C164.03 225.292 170.01 219.312 177.624 219.312C185.239 219.312 191.218 225.292 191.218 232.906V253.024C206.989 258.734 218.133 273.688 218.133 291.359C218.133 298.701 212.154 304.953 204.539 304.953C197.197 304.953 190.945 298.701 190.945 291.359C190.945 283.748 185.239 278.038 177.624 277.766H177.352C170.01 277.766 163.758 283.748 163.758 291.359C163.758 298.701 170.01 304.953 177.352 304.953H177.624C200.192 305.226 218.133 323.17 218.133 345.734Z" fill="url(#paint2_linear)"/>
<path d="M464 273.688C464 288.641 451.766 300.875 436.812 300.875L367.938 328.062L299.969 300.875C285.016 300.875 272.781 288.641 272.781 273.688C272.781 258.734 285.016 246.5 299.969 246.5H436.812C451.766 246.5 464 258.734 464 273.688Z" fill="url(#paint3_linear)"/>
<path d="M464 328.062C464 343.016 451.766 355.25 436.812 355.25L367.938 382.438L299.969 355.25C285.016 355.25 272.781 343.016 272.781 328.062C272.781 313.109 285.016 300.875 299.969 300.875H436.812C451.766 300.875 464 313.109 464 328.062Z" fill="url(#paint4_linear)"/>
<path d="M464 382.438C464 397.391 451.766 409.625 436.812 409.625L367.938 436.812L299.969 409.625C285.016 409.625 272.781 397.391 272.781 382.438C272.781 367.484 285.016 355.25 299.969 355.25H436.812C451.766 355.25 464 367.484 464 382.438Z" fill="url(#paint5_linear)"/>
<path d="M464 436.812C464 451.766 451.766 464 436.812 464H299.969C285.016 464 272.781 451.766 272.781 436.812C272.781 421.859 285.016 409.625 299.969 409.625H436.812C451.766 409.625 464 421.859 464 436.812Z" fill="url(#paint6_linear)"/>
<path d="M272.781 136.844C272.781 151.797 260.547 164.031 245.594 164.031H109.656C94.7031 164.031 82.4688 151.797 82.4688 136.844C82.4688 121.891 94.7031 109.656 109.656 109.656H245.594C260.547 109.656 272.781 121.891 272.781 136.844Z" fill="url(#paint7_linear)"/>
<defs>
<linearGradient id="paint0_linear" x1="90.625" y1="181.25" x2="246.047" y2="464" gradientUnits="userSpaceOnUse">
<stop stopColor="#FF637B"/>
<stop offset="1" stopColor="#E63950"/>
</linearGradient>
<linearGradient id="paint1_linear" x1="131.135" y1="11.3285" x2="185.247" y2="139.971" gradientUnits="userSpaceOnUse">
<stop stopColor="#FF637B"/>
<stop offset="1" stopColor="#E63950"/>
</linearGradient>
<linearGradient id="paint2_linear" x1="131.521" y1="219.313" x2="229.091" y2="223.599" gradientUnits="userSpaceOnUse">
<stop stopColor="#FFDA2D"/>
<stop offset="1" stopColor="#FFA800"/>
</linearGradient>
<linearGradient id="paint3_linear" x1="260.944" y1="246.5" x2="477.621" y2="298.568" gradientUnits="userSpaceOnUse">
<stop stopColor="#FFDA2D"/>
<stop offset="1" stopColor="#FFA800"/>
</linearGradient>
<linearGradient id="paint4_linear" x1="454.938" y1="300.875" x2="212.516" y2="356.156" gradientUnits="userSpaceOnUse">
<stop stopColor="#FDBF00"/>
<stop offset="1" stopColor="#FF9100"/>
</linearGradient>
<linearGradient id="paint5_linear" x1="260.944" y1="355.25" x2="477.621" y2="407.318" gradientUnits="userSpaceOnUse">
<stop stopColor="#FFDA2D"/>
<stop offset="1" stopColor="#FFA800"/>
</linearGradient>
<linearGradient id="paint6_linear" x1="454.938" y1="409.625" x2="226.623" y2="487.721" gradientUnits="userSpaceOnUse">
<stop stopColor="#FDBF00"/>
<stop offset="1" stopColor="#FF9100"/>
</linearGradient>
<linearGradient id="paint7_linear" x1="70.6875" y1="109.656" x2="272.781" y2="182.156" gradientUnits="userSpaceOnUse">
<stop stopColor="#FFDA2D"/>
<stop offset="1" stopColor="#FFA800"/>
</linearGradient>
</defs>
</svg>
