<svg width="18" height="18" viewBox="0 0 18 18" fill="none" xmlns="http://www.w3.org/2000/svg">
<path d="M7.93876 9.00003L4.75678 5.81805C4.46389 5.52516 4.46389 5.05028 4.75678 4.75739C5.04967 4.4645 5.52455 4.4645 5.81744 4.75739L8.99942 7.93937L12.1814 4.75739C12.4743 4.4645 12.9492 4.4645 13.2421 4.75739C13.535 5.05028 13.535 5.52516 13.2421 5.81805L10.0601 9.00003L13.2421 12.182C13.535 12.4749 13.535 12.9498 13.2421 13.2427C12.9492 13.5356 12.4743 13.5356 12.1814 13.2427L8.99942 10.0607L5.81744 13.2427C5.52455 13.5356 5.04967 13.5356 4.75678 13.2427C4.46389 12.9498 4.46389 12.4749 4.75678 12.182L7.93876 9.00003Z" fill="#4F4F4F"/>
</svg>
