<svg width="21" height="22" viewBox="0 0 21 22" fill="none" xmlns="http://www.w3.org/2000/svg">
<path d="M20.6791 18.3502L15.7763 13.2852C15.4247 12.9219 14.9853 12.7764 14.7949 12.9622C14.6039 13.1466 14.1642 13.0015 13.8126 12.6381L13.7425 12.5654C15.9368 9.6794 15.7239 5.54728 13.0888 2.91224C10.2129 0.036353 5.55002 0.036353 2.67449 2.91224C-0.201394 5.78813 -0.201394 10.4504 2.67449 13.3263C5.35442 16.0065 9.58418 16.1861 12.4761 13.8712L12.5069 13.9033C12.8578 14.2666 12.9885 14.7106 12.7969 14.8954C12.6062 15.0802 12.7359 15.5245 13.0879 15.8872L17.988 20.9542C18.3396 21.3166 18.9188 21.3274 19.2826 20.9755L20.6578 19.6449C21.0201 19.2938 21.03 18.7149 20.6791 18.3502ZM11.4705 11.7079C9.49147 13.6872 6.27094 13.6872 4.29217 11.7085C2.3131 9.72946 2.3134 6.50856 4.29217 4.52986C6.27094 2.55079 9.49147 2.55109 11.4699 4.53016C13.4492 6.50893 13.4492 9.72916 11.4705 11.7079Z" fill="#D0D0D0"/>
</svg>
