<svg width="25" height="13" viewBox="0 0 25 13" fill="none" xmlns="http://www.w3.org/2000/svg">
<path d="M18.5211 0.348297H13.7506V2.73353H18.5211C20.4889 2.73353 22.0989 4.34356 22.0989 6.31137C22.0989 8.27919 20.4889 9.88922 18.5211 9.88922H13.7506V12.2745H18.5211C21.8127 12.2745 24.4841 9.60299 24.4841 6.31137C24.4841 3.01976 21.8127 0.348297 18.5211 0.348297ZM11.3654 9.88922H6.59491C4.6271 9.88922 3.01707 8.27919 3.01707 6.31137C3.01707 4.34356 4.6271 2.73353 6.59491 2.73353H11.3654V0.348297H6.59491C3.30329 0.348297 0.631836 3.01976 0.631836 6.31137C0.631836 9.60299 3.30329 12.2745 6.59491 12.2745H11.3654V9.88922ZM7.78753 5.11876H17.3284V7.50399H7.78753V5.11876Z" fill="#333333"/>
</svg>
