
<svg width="42" height="69" viewBox="0 0 42 69" fill="none" xmlns="http://www.w3.org/2000/svg">
<path d="M18.3703 43.4C19.1703 42.8667 19.9703 42.4667 20.7703 42.2C21.5703 41.6667 22.237 41.1333 22.7703 40.6C24.9036 39.2667 27.1703 38.8667 29.5703 39.4C32.237 39.6667 34.237 40.4667 35.5703 41.8C37.7036 43.9333 38.1036 46.8667 36.7703 50.6C35.9703 53.8 34.3703 56.6 31.9703 59C29.837 61.6667 27.437 63.9333 24.7703 65.8C22.1036 67.4 19.1703 68.3333 15.9703 68.6C10.9036 68.8667 6.77031 67.1333 3.57031 63.4C2.23698 62.0667 1.43698 60.4667 1.17031 58.6C0.903646 56.7333 0.903646 54.7333 1.17031 52.6C1.70365 49.4 2.37031 46.3333 3.17031 43.4C3.97031 40.4667 5.03698 37.5333 6.37031 34.6C8.50365 29.5333 11.037 24.7333 13.9703 20.2C16.9036 15.4 20.237 11.1333 23.9703 7.4C24.7703 6.6 25.5703 5.8 26.3703 5C27.1703 4.2 28.1036 3.4 29.1703 2.6C31.037 1.26666 33.037 0.866661 35.1703 1.4C37.3036 1.93333 38.7703 2.86666 39.5703 4.2C40.637 5.53333 40.637 6.73333 39.5703 7.8C34.237 13.9333 29.837 20.3333 26.3703 27C23.437 31.8 21.037 36.6 19.1703 41.4C18.9036 41.9333 18.7703 42.3333 18.7703 42.6C18.7703 42.6 18.637 42.8667 18.3703 43.4ZM17.5703 58.2L17.9703 58.6C19.037 57.8 20.1036 56.7333 21.1703 55.4C22.237 54.0667 22.9036 52.8667 23.1703 51.8C22.1036 53.1333 21.1703 54.3333 20.3703 55.4C19.5703 56.2 18.637 57.1333 17.5703 58.2Z" fill="#EA4524"/>
</svg>
