<svg width="391" height="468" viewBox="0 0 391 468" fill="none" xmlns="http://www.w3.org/2000/svg">
<circle cx="213.767" cy="433.591" r="12.4744" fill="url(#paint0_linear)"/>
<circle cx="213.767" cy="433.591" r="10.9151" stroke="#393956" stroke-opacity="0.5" stroke-width="3.11861"/>
<circle r="12.4744" transform="matrix(-1 0 0 1 296.8 433.591)" fill="url(#paint1_linear)"/>
<circle r="10.9151" transform="matrix(-1 0 0 1 296.8 433.591)" stroke="#393956" stroke-opacity="0.5" stroke-width="3.11861"/>
<circle cx="178.682" cy="433.591" r="12.4744" fill="url(#paint2_linear)"/>
<circle cx="178.682" cy="433.591" r="10.9151" stroke="#393956" stroke-opacity="0.5" stroke-width="3.11861"/>
<circle r="12.4744" transform="matrix(-1 0 0 1 335.782 433.591)" fill="url(#paint3_linear)"/>
<circle r="10.9151" transform="matrix(-1 0 0 1 335.782 433.591)" stroke="#393956" stroke-opacity="0.5" stroke-width="3.11861"/>
<rect x="152.174" y="174.746" width="195.693" height="249.489" rx="24.9489" fill="url(#paint4_linear)"/>
<path d="M152.174 196.76C152.174 184.602 162.03 174.746 174.188 174.746H336.172C342.631 174.746 347.867 179.982 347.867 186.441C347.867 192.9 342.631 198.136 336.172 198.136H153.55C152.79 198.136 152.174 197.52 152.174 196.76Z" fill="#5CD6C0"/>
<path d="M152.174 402.222C152.174 414.379 162.03 424.235 174.188 424.235H336.172C342.631 424.235 347.867 418.999 347.867 412.541C347.867 406.082 342.631 400.846 336.172 400.846H153.55C152.79 400.846 152.174 401.462 152.174 402.222Z" fill="#24AD94"/>
<path d="M295.63 196.261C295.63 183.518 306.8 174.746 320.579 174.746H333.833C347.612 174.746 358.782 183.518 358.782 196.261V402.72C358.782 415.464 347.612 424.235 333.833 424.235H320.579C306.8 424.235 295.63 415.464 295.63 402.72V196.261Z" fill="url(#paint5_linear)"/>
<path d="M333.833 174.746H320.579C306.8 174.746 295.63 183.518 295.63 196.261V198.136H358.782V196.261C358.782 183.518 347.612 174.746 333.833 174.746Z" fill="#1FAD94"/>
<path d="M333.833 424.235H320.579C306.8 424.235 295.63 415.464 295.63 402.721V400.846H358.782V402.721C358.782 415.464 347.612 424.235 333.833 424.235Z" fill="#149F88"/>
<rect opacity="0.5" x="164.649" y="213.729" width="6.23722" height="171.524" rx="3.11861" fill="url(#paint6_linear)"/>
<rect opacity="0.5" x="178.683" y="213.729" width="6.23722" height="171.524" rx="3.11861" fill="url(#paint7_linear)"/>
<rect opacity="0.5" x="192.716" y="213.729" width="6.23722" height="171.524" rx="3.11861" fill="url(#paint8_linear)"/>
<rect opacity="0.5" x="206.75" y="213.729" width="6.23722" height="171.524" rx="3.11861" fill="url(#paint9_linear)"/>
<rect opacity="0.5" x="220.784" y="213.729" width="6.23722" height="171.524" rx="3.11861" fill="url(#paint10_linear)"/>
<rect opacity="0.5" x="234.817" y="213.729" width="6.23722" height="171.524" rx="3.11861" fill="url(#paint11_linear)"/>
<rect opacity="0.5" x="248.851" y="213.729" width="6.23722" height="171.524" rx="3.11861" fill="url(#paint12_linear)"/>
<rect opacity="0.5" x="262.885" y="213.729" width="6.23722" height="171.524" rx="3.11861" fill="url(#paint13_linear)"/>
<rect opacity="0.5" x="276.919" y="213.729" width="6.23722" height="171.524" rx="3.11861" fill="url(#paint14_linear)"/>
<path d="M328.352 269.472C327.756 265.742 330.608 262.068 334.386 262.068C336.843 262.068 338.992 263.664 339.481 266.073C340.396 270.588 341.63 278.901 341.63 290.915C341.63 302.929 340.396 311.242 339.481 315.757C338.992 318.165 336.843 319.762 334.386 319.762C330.608 319.762 327.756 316.088 328.352 312.358C329.14 307.433 329.935 300.168 329.935 290.915C329.935 281.661 329.14 274.397 328.352 269.472Z" fill="url(#paint15_linear)"/>
<path d="M332.773 322.83C335.736 323.23 340.245 321.387 340.608 318.42C340.72 317.504 340.46 316.574 339.733 316.007C338.643 315.156 336.679 314.006 333.731 313.645C330.783 313.284 328.6 313.926 327.336 314.489C326.493 314.865 326.017 315.704 325.905 316.62C325.541 319.587 329.473 322.464 332.444 322.79C332.499 322.796 332.554 322.802 332.609 322.809C332.664 322.816 332.719 322.823 332.773 322.83Z" fill="#4CE0C5"/>
<path d="M332.776 260.002C329.812 260.397 325.949 263.364 326.381 266.322C326.514 267.235 327.01 268.063 327.861 268.419C329.137 268.952 331.335 269.544 334.274 269.115C337.212 268.686 339.149 267.491 340.22 266.615C340.933 266.03 341.172 265.095 341.039 264.182C340.607 261.224 336.056 259.486 333.104 259.954C333.049 259.963 332.995 259.971 332.94 259.979C332.885 259.987 332.83 259.995 332.776 260.002Z" fill="#4CE0C5"/>
<rect x="241.055" y="50.0021" width="9.35583" height="124.744" fill="url(#paint16_linear)"/>
<rect x="241.055" y="50.0021" width="9.35583" height="124.744" fill="url(#paint17_linear)"/>
<rect x="296.41" y="50.0021" width="9.35583" height="124.744" fill="url(#paint18_linear)"/>
<rect x="296.41" y="50.0021" width="9.35583" height="124.744" fill="url(#paint19_linear)"/>
<path d="M259.766 28.9514C258.905 28.9514 258.207 28.2533 258.207 27.3921V22.7142C258.207 19.2695 261 16.477 264.444 16.477H282.376C285.821 16.477 288.613 19.2695 288.613 22.7142V27.3921C288.613 28.2533 287.915 28.9514 287.054 28.9514H259.766Z" fill="url(#paint20_linear)"/>
<path d="M241.055 55.4596C240.194 55.4596 239.496 54.7615 239.496 53.9003V26.6125C239.496 23.1677 242.288 20.3752 245.733 20.3752H301.088C304.533 20.3752 307.325 23.1677 307.325 26.6125V53.9003C307.325 54.7615 306.627 55.4596 305.766 55.4596H296.41C295.549 55.4596 294.851 54.7615 294.851 53.9003V35.9683C294.851 34.2459 293.455 32.8497 291.732 32.8497H255.089C253.366 32.8497 251.97 34.2459 251.97 35.9683V53.9003C251.97 54.7615 251.272 55.4596 250.411 55.4596H241.055Z" fill="url(#paint21_linear)"/>
<path d="M211.469 414.1V330.677C211.469 274.152 180.461 260.508 137.402 260.508H121.809V338.473V416.439C121.809 433.662 120.179 447.625 137.402 447.625H184.182C201.405 447.625 211.469 431.323 211.469 414.1Z" fill="url(#paint22_linear)"/>
<path d="M113.971 260.898C112.249 260.898 110.853 262.294 110.853 264.017C110.853 265.739 112.249 267.135 113.971 267.135L113.971 260.898ZM141.921 264.543L141.859 267.661L141.921 264.543ZM193.496 316.253C193.496 317.976 194.892 319.372 196.614 319.372C198.337 319.372 199.733 317.976 199.733 316.253H193.496ZM113.971 267.135C115.146 267.135 127.338 267.371 141.859 267.661L141.983 261.425C127.53 261.136 115.229 260.898 113.971 260.898L113.971 267.135ZM141.859 267.661C169.604 268.215 193.496 289.114 193.496 316.253H199.733C199.733 285.123 172.496 262.035 141.983 261.425L141.859 267.661Z" fill="#F46244"/>
<path d="M154.513 371.998H214.546C216.269 371.998 217.665 373.395 217.665 375.117V416.439C217.665 431.94 205.099 444.506 189.598 444.506H154.513V371.998Z" fill="url(#paint23_linear)" stroke="url(#paint24_linear)" stroke-width="6.23722"/>
<path d="M40.684 318.982C40.684 288.41 65.4675 263.627 96.0394 263.627H119.429C150.001 263.627 174.784 288.41 174.784 318.982V416.439C174.784 431.94 162.218 444.506 146.717 444.506H68.7515C53.2503 444.506 40.684 431.94 40.684 416.439V318.982Z" fill="url(#paint25_linear)" stroke="url(#paint26_linear)" stroke-width="6.23722"/>
<path fill-rule="evenodd" clip-rule="evenodd" d="M197.995 314.304C196.455 314.304 195.146 315.427 194.912 316.949L192.753 330.982C192.463 332.871 193.924 334.575 195.836 334.575H201.04C202.951 334.575 204.413 332.871 204.122 330.982L201.963 316.949C201.729 315.427 200.42 314.304 198.881 314.304H197.995ZM196.707 328.338C196.35 328.338 196.038 328.581 195.951 328.929L195.561 330.488C195.438 330.98 195.81 331.457 196.318 331.457H200.558C201.065 331.457 201.437 330.98 201.314 330.488L200.924 328.929C200.838 328.581 200.526 328.338 200.168 328.338H196.707Z" fill="url(#paint27_linear)"/>
<path d="M43.0229 389.379C43.0229 368.154 62.7596 350.948 87.106 350.948H111.749C140.965 350.948 164.649 363.799 164.649 389.269V429.134C164.649 437.624 156.754 444.506 147.016 444.506H51.8396C46.9703 444.506 43.0229 441.065 43.0229 436.82V389.379Z" fill="url(#paint28_linear)"/>
<path d="M70.6494 351.727C51.947 351.727 36.7857 366.889 36.7857 385.591V428.244C36.7857 434.211 41.6232 439.049 47.5906 439.049H138.251C144.218 439.049 149.056 434.211 149.056 428.244V385.591C149.056 366.889 133.894 351.727 115.192 351.727H70.6494Z" fill="url(#paint29_linear)" stroke="url(#paint30_linear)" stroke-width="6.23722"/>
<path opacity="0.5" d="M33.667 386.032L152.174 386.032" stroke="#992913" stroke-width="6.23722"/>
<path fill-rule="evenodd" clip-rule="evenodd" d="M132.157 386.032C130.259 386.032 128.646 387.417 128.358 389.293L125.712 406.556C125.355 408.883 127.156 410.981 129.51 410.981H135.855C138.21 410.981 140.011 408.883 139.654 406.556L137.007 389.293C136.72 387.417 135.106 386.032 133.209 386.032H132.157ZM130.62 403.163C130.179 403.163 129.794 403.463 129.688 403.892L129.21 405.808C129.059 406.414 129.518 407.001 130.142 407.001H135.333C135.958 407.001 136.416 406.414 136.265 405.808L135.788 403.892C135.681 403.463 135.297 403.163 134.855 403.163H130.62Z" fill="url(#paint31_linear)"/>
<defs>
<linearGradient id="paint0_linear" x1="213.767" y1="421.117" x2="213.767" y2="446.066" gradientUnits="userSpaceOnUse">
<stop stopColor="#8CABCA"/>
<stop offset="1" stopColor="#4E8393"/>
</linearGradient>
<linearGradient id="paint1_linear" x1="12.4744" y1="0" x2="12.4744" y2="24.9489" gradientUnits="userSpaceOnUse">
<stop stopColor="#8CABCA"/>
<stop offset="1" stopColor="#4E8393"/>
</linearGradient>
<linearGradient id="paint2_linear" x1="178.682" y1="421.117" x2="178.682" y2="446.066" gradientUnits="userSpaceOnUse">
<stop stopColor="#8CABCA"/>
<stop offset="1" stopColor="#4E8393"/>
</linearGradient>
<linearGradient id="paint3_linear" x1="12.4744" y1="0" x2="12.4744" y2="24.9489" gradientUnits="userSpaceOnUse">
<stop stopColor="#8CABCA"/>
<stop offset="1" stopColor="#4E8393"/>
</linearGradient>
<linearGradient id="paint4_linear" x1="177.903" y1="174.746" x2="250.021" y2="424.235" gradientUnits="userSpaceOnUse">
<stop stopColor="#5CD6C0"/>
<stop offset="1" stopColor="#1FB297"/>
</linearGradient>
<linearGradient id="paint5_linear" x1="295.63" y1="323.66" x2="374.137" y2="319.332" gradientUnits="userSpaceOnUse">
<stop stopColor="#12A58B"/>
<stop offset="1" stopColor="#22C3B3"/>
</linearGradient>
<linearGradient id="paint6_linear" x1="164.649" y1="298.085" x2="170.886" y2="298.085" gradientUnits="userSpaceOnUse">
<stop stopColor="#29A38D"/>
<stop offset="1" stopColor="#22C3A6"/>
</linearGradient>
<linearGradient id="paint7_linear" x1="178.683" y1="298.085" x2="184.92" y2="298.085" gradientUnits="userSpaceOnUse">
<stop stopColor="#29A38D"/>
<stop offset="1" stopColor="#22C3A6"/>
</linearGradient>
<linearGradient id="paint8_linear" x1="192.716" y1="298.085" x2="198.954" y2="298.085" gradientUnits="userSpaceOnUse">
<stop stopColor="#29A38D"/>
<stop offset="1" stopColor="#22C3A6"/>
</linearGradient>
<linearGradient id="paint9_linear" x1="206.75" y1="298.085" x2="212.987" y2="298.085" gradientUnits="userSpaceOnUse">
<stop stopColor="#29A38D"/>
<stop offset="1" stopColor="#22C3A6"/>
</linearGradient>
<linearGradient id="paint10_linear" x1="220.784" y1="298.085" x2="227.021" y2="298.085" gradientUnits="userSpaceOnUse">
<stop stopColor="#29A38D"/>
<stop offset="1" stopColor="#22C3A6"/>
</linearGradient>
<linearGradient id="paint11_linear" x1="234.817" y1="298.085" x2="241.055" y2="298.085" gradientUnits="userSpaceOnUse">
<stop stopColor="#29A38D"/>
<stop offset="1" stopColor="#22C3A6"/>
</linearGradient>
<linearGradient id="paint12_linear" x1="248.851" y1="298.085" x2="255.088" y2="298.085" gradientUnits="userSpaceOnUse">
<stop stopColor="#29A38D"/>
<stop offset="1" stopColor="#22C3A6"/>
</linearGradient>
<linearGradient id="paint13_linear" x1="262.885" y1="298.085" x2="269.122" y2="298.085" gradientUnits="userSpaceOnUse">
<stop stopColor="#29A38D"/>
<stop offset="1" stopColor="#22C3A6"/>
</linearGradient>
<linearGradient id="paint14_linear" x1="276.919" y1="298.085" x2="283.156" y2="298.085" gradientUnits="userSpaceOnUse">
<stop stopColor="#29A38D"/>
<stop offset="1" stopColor="#22C3A6"/>
</linearGradient>
<linearGradient id="paint15_linear" x1="334.223" y1="262.068" x2="334.223" y2="319.762" gradientUnits="userSpaceOnUse">
<stop stopColor="#5CD6C0"/>
<stop offset="1" stopColor="#22C3A6"/>
</linearGradient>
<linearGradient id="paint16_linear" x1="241.055" y1="114.813" x2="250.411" y2="114.813" gradientUnits="userSpaceOnUse">
<stop stopColor="#C4C4C4"/>
<stop offset="1" stopColor="#C4C4C4" stopOpacity="0"/>
</linearGradient>
<linearGradient id="paint17_linear" x1="241.055" y1="112.374" x2="250.411" y2="112.374" gradientUnits="userSpaceOnUse">
<stop stopColor="#B0C6DC"/>
<stop offset="0.604167" stopColor="#A5BBCB"/>
<stop offset="0.760417" stopColor="#95ABB3"/>
<stop offset="1" stopColor="#91A7AD"/>
</linearGradient>
<linearGradient id="paint18_linear" x1="296.41" y1="114.813" x2="305.766" y2="114.813" gradientUnits="userSpaceOnUse">
<stop stopColor="#C4C4C4"/>
<stop offset="1" stopColor="#C4C4C4" stopOpacity="0"/>
</linearGradient>
<linearGradient id="paint19_linear" x1="296.41" y1="112.374" x2="305.766" y2="112.374" gradientUnits="userSpaceOnUse">
<stop stopColor="#B0C6DC"/>
<stop offset="0.604167" stopColor="#A5BBCB"/>
<stop offset="0.760417" stopColor="#95ABB3"/>
<stop offset="1" stopColor="#91A7AD"/>
</linearGradient>
<linearGradient id="paint20_linear" x1="258.987" y1="17.2566" x2="289.393" y2="19.5956" gradientUnits="userSpaceOnUse">
<stop stopColor="#6B94BD"/>
<stop offset="0.375" stopColor="#5E8DBA"/>
<stop offset="0.719177" stopColor="#4B78A0"/>
<stop offset="1" stopColor="#254F74"/>
</linearGradient>
<linearGradient id="paint21_linear" x1="239.496" y1="37.9174" x2="307.325" y2="37.9174" gradientUnits="userSpaceOnUse">
<stop stopColor="#5E87B0"/>
<stop offset="0.411458" stopColor="#5A88B2"/>
<stop offset="0.92626" stopColor="#49799C"/>
<stop offset="0.952589" stopColor="#336375"/>
<stop offset="1" stopColor="#19414D"/>
</linearGradient>
<linearGradient id="paint22_linear" x1="166.65" y1="299.145" x2="166.619" y2="447.625" gradientUnits="userSpaceOnUse">
<stop stopColor="#EA4524"/>
<stop offset="1" stopColor="#8F1438"/>
</linearGradient>
<linearGradient id="paint23_linear" x1="186.089" y1="368.88" x2="186.089" y2="447.625" gradientUnits="userSpaceOnUse">
<stop stopColor="#EA4524"/>
<stop offset="1" stopColor="#C8371A"/>
</linearGradient>
<linearGradient id="paint24_linear" x1="186.089" y1="368.88" x2="186.089" y2="447.625" gradientUnits="userSpaceOnUse">
<stop stopColor="#B21D48"/>
<stop offset="1" stopColor="#8482ED" stopOpacity="0"/>
</linearGradient>
<linearGradient id="paint25_linear" x1="83.5649" y1="266.745" x2="155.683" y2="447.625" gradientUnits="userSpaceOnUse">
<stop stopColor="#EA6B24"/>
<stop offset="0.357212" stopColor="#EA4524"/>
<stop offset="1" stopColor="#EA4524"/>
</linearGradient>
<linearGradient id="paint26_linear" x1="146.008" y1="447.625" x2="-2.96433" y2="346.682" gradientUnits="userSpaceOnUse">
<stop stopColor="#E2826F"/>
<stop offset="1" stopColor="#EA4524"/>
</linearGradient>
<linearGradient id="paint27_linear" x1="195.952" y1="315.474" x2="209.557" y2="347.03" gradientUnits="userSpaceOnUse">
<stop stopColor="#F7DFBA"/>
<stop offset="1" stopColor="#EA4524"/>
</linearGradient>
<linearGradient id="paint28_linear" x1="151.015" y1="348.655" x2="29.5854" y2="444.548" gradientUnits="userSpaceOnUse">
<stop stopColor="#FF7C62"/>
<stop offset="0.57671" stopColor="#C93A1E"/>
<stop offset="1" stopColor="#CD391C"/>
</linearGradient>
<linearGradient id="paint29_linear" x1="74.6595" y1="357.549" x2="94.3999" y2="443.876" gradientUnits="userSpaceOnUse">
<stop stopColor="#EA6B24"/>
<stop offset="0.357212" stopColor="#EA4524"/>
<stop offset="1" stopColor="#EA4524"/>
</linearGradient>
<linearGradient id="paint30_linear" x1="46.7836" y1="340.317" x2="170.998" y2="469.914" gradientUnits="userSpaceOnUse">
<stop stopColor="#E2826F"/>
<stop offset="1" stopColor="#EA4524"/>
</linearGradient>
<linearGradient id="paint31_linear" x1="129.634" y1="387.472" x2="146.42" y2="426.266" gradientUnits="userSpaceOnUse">
<stop stopColor="#F7DFBA"/>
<stop offset="1" stopColor="#EA4524"/>
</linearGradient>
</defs>
</svg>
