<svg width="47" height="48" viewBox="0 0 47 48" fill="none" xmlns="http://www.w3.org/2000/svg">
<rect width="47" height="48" rx="13" fill="#F15A2B"/>
<path d="M27.8917 24.9417C29.0333 25.7167 29.8333 26.7667 29.8333 28.1667V30.6667H33.1667V28.1667C33.1667 26.35 30.1917 25.275 27.8917 24.9417Z" fill="#FAFAFA"/>
<path d="M26.5 23.9999C28.3417 23.9999 29.8333 22.5083 29.8333 20.6666C29.8333 18.8249 28.3417 17.3333 26.5 17.3333C26.1083 17.3333 25.7417 17.4166 25.3917 17.5333C26.0833 18.3916 26.5 19.4833 26.5 20.6666C26.5 21.8499 26.0833 22.9416 25.3917 23.7999C25.7417 23.9166 26.1083 23.9999 26.5 23.9999Z" fill="#FAFAFA"/>
<path d="M21.5 23.9999C23.3416 23.9999 24.8333 22.5083 24.8333 20.6666C24.8333 18.8249 23.3416 17.3333 21.5 17.3333C19.6583 17.3333 18.1666 18.8249 18.1666 20.6666C18.1666 22.5083 19.6583 23.9999 21.5 23.9999ZM21.5 18.9999C22.4166 18.9999 23.1666 19.7499 23.1666 20.6666C23.1666 21.5833 22.4166 22.3333 21.5 22.3333C20.5833 22.3333 19.8333 21.5833 19.8333 20.6666C19.8333 19.7499 20.5833 18.9999 21.5 18.9999Z" fill="#FAFAFA"/>
<path d="M21.5 24.8333C19.275 24.8333 14.8333 25.9499 14.8333 28.1666V30.6666H28.1666V28.1666C28.1666 25.9499 23.725 24.8333 21.5 24.8333ZM26.5 28.9999H16.5V28.1749C16.6666 27.5749 19.25 26.4999 21.5 26.4999C23.75 26.4999 26.3333 27.5749 26.5 28.1666V28.9999Z" fill="#FAFAFA"/>
</svg>
