<svg width="25" height="25" viewBox="0 0 25 25" fill="none" xmlns="http://www.w3.org/2000/svg">
<path d="M12.9707 0.970562C6.3443 0.970562 0.970703 6.34416 0.970703 12.9706C0.970703 19.597 6.3443 24.9706 12.9707 24.9706C19.5971 24.9706 24.9707 19.597 24.9707 12.9706C24.9707 6.34416 19.5971 0.970562 12.9707 0.970562ZM18.4498 10.3269C18.4551 10.445 18.4576 10.5636 18.4576 10.6828C18.4576 14.3224 15.6873 18.5194 10.6209 18.5196H10.6211H10.6209C9.06543 18.5196 7.61798 18.0636 6.39905 17.2823C6.61456 17.3078 6.83392 17.3204 7.05603 17.3204C8.34656 17.3204 9.53418 16.8802 10.477 16.1414C9.27124 16.1191 8.25464 15.3227 7.90381 14.2283C8.07172 14.2605 8.24438 14.2781 8.42145 14.2781C8.67285 14.2781 8.91638 14.2442 9.14783 14.1811C7.88751 13.9288 6.93811 12.8149 6.93811 11.4812C6.93811 11.4687 6.93811 11.4576 6.93848 11.446C7.30963 11.6524 7.73407 11.7765 8.18597 11.7904C7.44641 11.297 6.96027 10.4534 6.96027 9.49778C6.96027 8.99314 7.09668 8.52037 7.33325 8.11332C8.69153 9.77995 10.7214 10.876 13.0106 10.9912C12.9634 10.7894 12.939 10.5792 12.939 10.3631C12.939 8.84263 14.1726 7.60905 15.6937 7.60905C16.486 7.60905 17.2015 7.94395 17.7042 8.47935C18.3317 8.35557 18.9209 8.12632 19.4532 7.81083C19.2472 8.45372 18.8107 8.99314 18.2419 9.33427C18.7991 9.26762 19.3301 9.11985 19.8236 8.90049C19.455 9.45292 18.9875 9.93815 18.4498 10.3269Z" fill="#828282"/>
</svg>
