<svg width="99" height="40" viewBox="0 0 99 40" fill="none" xmlns="http://www.w3.org/2000/svg">
<path d="M23.5288 13.5271H28.594L21.3627 31.0222H16.9973L14.298 23.8242L11.5987 31.0222H7.23329L0.00195745 13.5271H5.0339L9.79925 26.0902L11.4321 21.3249L8.33299 13.5271H12.5985L14.298 18.7923L15.9642 13.5271H20.2297L17.1639 21.3249L18.7968 26.0902L23.5288 13.5271ZM34.8228 31.3555C33.9564 31.3555 33.1455 31.2222 32.3901 30.9556C31.657 30.6668 31.0238 30.278 30.4907 29.7892C29.9575 29.2783 29.5354 28.6895 29.2243 28.023C28.9133 27.3343 28.7578 26.5901 28.7578 25.7903C28.7578 24.9239 28.9355 24.1352 29.291 23.4243C29.6687 22.7134 30.1907 22.1025 30.8572 21.5915C31.5237 21.0805 32.3124 20.6806 33.2232 20.3918C34.1341 20.103 35.1449 19.9586 36.2557 19.9586C36.9889 19.9586 37.6998 20.0253 38.3885 20.1586C39.0772 20.2696 39.677 20.4474 40.188 20.6917V19.892C40.188 17.8703 39.0216 16.8595 36.6889 16.8595C35.7336 16.8595 34.8228 17.0261 33.9564 17.3593C33.0899 17.6704 32.1791 18.148 31.2238 18.7923L29.6576 15.4599C30.8128 14.7045 32.0125 14.138 33.2566 13.7603C34.5007 13.3827 35.8225 13.1938 37.2221 13.1938C39.8658 13.1938 41.9097 13.8159 43.3538 15.06C44.7978 16.3041 45.5198 18.1258 45.5198 20.5251V25.0239C45.5198 25.5571 45.5976 25.9347 45.7531 26.1569C45.9308 26.3568 46.2307 26.479 46.6529 26.5235V31.0222C46.1863 31.1333 45.7642 31.1999 45.3865 31.2222C45.0089 31.2666 44.6645 31.2888 44.3535 31.2888C43.3538 31.2888 42.5984 31.1 42.0874 30.7223C41.5765 30.3224 41.2543 29.767 41.121 29.0561L41.0211 28.2563C40.2435 29.256 39.3104 30.0225 38.2219 30.5557C37.1555 31.0889 36.0225 31.3555 34.8228 31.3555ZM36.389 27.5232C36.9666 27.5232 37.522 27.4232 38.0552 27.2233C38.6106 27.0233 39.0661 26.7567 39.4215 26.4235C39.9325 26.0236 40.188 25.6015 40.188 25.1572V23.491C39.7214 23.3132 39.2105 23.1799 38.6551 23.0911C38.1219 22.98 37.622 22.9245 37.1555 22.9245C36.178 22.9245 35.3671 23.1466 34.7228 23.5909C34.1008 24.0353 33.7897 24.6129 33.7897 25.3238C33.7897 25.9681 34.0341 26.5012 34.5229 26.9234C35.0116 27.3232 35.6337 27.5232 36.389 27.5232ZM49.0936 33.6548C49.5379 33.8103 49.9489 33.9214 50.3266 33.9881C50.7265 34.0547 51.0819 34.088 51.3929 34.088C52.0372 34.088 52.5371 33.8659 52.8925 33.4216C53.248 32.9772 53.5701 32.1775 53.8589 31.0222L47.1941 13.5271H52.6926L56.7581 26.4568L60.2572 13.5271H65.2558L58.591 33.8548C58.1244 35.2988 57.2913 36.4652 56.0916 37.3538C54.892 38.2647 53.4701 38.7201 51.8262 38.7201C51.3818 38.7201 50.9264 38.6757 50.4599 38.5868C50.0155 38.5201 49.5601 38.398 49.0936 38.2202V33.6548Z" fill="black"/>
<path d="M83.4943 15.0937C83.6504 15.1717 83.7869 15.2497 83.9039 15.3277C84.099 15.5228 84.138 15.7569 84.021 16.03C83.943 16.2251 83.6894 16.4981 83.2602 16.8493C82.8311 17.2004 82.3239 17.571 81.7387 17.9612C81.1535 18.3513 80.5098 18.7414 79.8075 19.1316C79.1443 19.5217 78.5201 19.8338 77.9349 20.0679C77.8958 20.1069 77.8373 20.1264 77.7593 20.1264C77.6423 20.2044 77.5057 20.3215 77.3497 20.4775C76.9205 20.9067 76.4719 21.3163 76.0037 21.7065C75.5355 22.0576 75.0283 22.3307 74.4822 22.5257C73.975 22.7208 73.5263 22.8379 73.1362 22.8769C72.707 22.9549 72.2779 22.8379 71.8487 22.5257C71.8097 22.6428 71.7512 22.7793 71.6732 22.9354C70.8929 24.652 70.2102 26.3686 69.625 28.0852C69.0007 29.8408 68.4155 31.5964 67.8694 33.352C67.6743 34.0153 67.4792 34.659 67.2841 35.2832C67.0501 35.9074 66.8355 36.5316 66.6404 37.1558L66.4649 37.6825C66.1137 38.5408 65.509 38.8529 64.6507 38.6189C64.2606 38.5798 64.085 38.3458 64.124 37.9166C64.1631 37.5655 64.2021 37.2144 64.2411 36.8632C64.2801 36.5121 64.3386 36.1415 64.4166 35.7514C64.7288 33.6836 65.1579 31.6354 65.7041 29.6067C66.2113 27.617 66.7575 25.6078 67.3427 23.5791C67.5768 22.7988 67.8303 21.9991 68.1034 21.1798C68.3375 20.3605 68.5716 19.5607 68.8057 18.7804L69.4494 16.6152C69.5274 16.4981 69.586 16.3811 69.625 16.2641C69.625 16.108 69.664 15.9715 69.742 15.8544L69.9176 15.1522L70.2687 14.2744C70.4247 14.0403 70.6588 13.8842 70.9709 13.8062C71.3221 13.7282 71.5952 13.7867 71.7902 13.9818C71.9073 14.0988 71.9268 14.2744 71.8487 14.5085C71.6927 15.1717 71.5366 15.8349 71.3806 16.4981C71.2635 17.1224 71.1075 17.7661 70.9124 18.4293C70.5613 19.6778 70.2297 20.9262 69.9176 22.1746C69.5664 23.384 69.2153 24.613 68.8642 25.8614C68.8252 25.9785 68.8252 26.076 68.8642 26.154C68.9032 26.076 68.9422 25.9785 68.9812 25.8614C69.0203 25.7834 69.0593 25.7054 69.0983 25.6273C69.6445 24.3009 70.1907 23.0134 70.7369 21.765C71.283 20.4775 71.9268 19.2291 72.668 18.0197C72.9801 17.4735 73.2922 16.9468 73.6044 16.4396C73.9165 15.9325 74.2871 15.4643 74.7162 15.0351C74.9113 14.8401 75.1064 14.6645 75.3014 14.5085C75.4965 14.3134 75.6916 14.1183 75.8866 13.9233C76.3548 13.5331 76.9595 13.3771 77.7008 13.4551C78.7932 13.5721 79.3784 14.2354 79.4564 15.4448C79.4564 16.2251 79.3003 17.0443 78.9882 17.9026C78.9102 18.0587 78.8517 18.1952 78.8127 18.3123C79.0077 18.1952 79.3198 18.0197 79.749 17.7856C80.1781 17.5125 80.6268 17.2199 81.095 16.9078C81.6021 16.5957 82.0703 16.2836 82.4995 15.9715C82.9676 15.6203 83.2992 15.3277 83.4943 15.0937ZM77.4667 16.4981C77.6228 15.991 77.6813 15.4643 77.6423 14.9181C77.6423 14.684 77.5642 14.4694 77.4082 14.2744C77.2911 14.3524 77.1546 14.4499 76.9985 14.567C76.8815 14.645 76.784 14.723 76.7059 14.8011C76.4328 15.0742 76.1792 15.3472 75.9452 15.6203C75.7111 15.8544 75.477 16.108 75.2429 16.3811C74.6967 17.1614 74.1896 17.9612 73.7214 18.7804C73.2922 19.5607 72.8631 20.38 72.4339 21.2383C72.4339 21.3163 72.4144 21.3944 72.3754 21.4724C72.5315 21.3944 72.668 21.3163 72.7851 21.2383C72.9021 21.1603 73.0191 21.0822 73.1362 21.0042C73.5653 20.8092 73.9555 20.6141 74.3066 20.419C74.6967 20.1849 75.1064 19.9704 75.5355 19.7753C75.6916 19.7363 75.8476 19.6387 76.0037 19.4827C76.3158 19.0145 76.5889 18.5464 76.823 18.0782C77.0961 17.571 77.3106 17.0443 77.4667 16.4981ZM91.539 15.3277C91.6171 15.4058 91.6561 15.5618 91.6561 15.7959C91.6561 16.069 91.5585 16.3421 91.3635 16.6152C91.2074 16.8883 91.0709 17.1419 90.9538 17.376C90.7588 17.649 90.5637 17.9221 90.3686 18.1952C90.2126 18.4293 90.037 18.6829 89.8419 18.956C89.4908 19.4632 89.0226 20.0094 88.4374 20.5946C88.2424 20.7506 88.0473 20.8872 87.8522 21.0042C87.6572 21.1213 87.4621 21.2188 87.267 21.2968C86.7599 21.4139 86.3502 21.2773 86.0381 20.8872C85.8821 20.7311 85.804 20.5165 85.804 20.2435C85.726 19.7753 85.726 19.3266 85.804 18.8975L85.9211 18.1367L85.7455 18.3123C85.6285 18.5073 85.5114 18.7024 85.3944 18.8975C85.2773 19.0535 85.1603 19.2096 85.0433 19.3656C84.7312 19.7558 84.38 19.9509 83.9899 19.9509C83.4827 20.0289 83.0341 19.8923 82.6439 19.5412C82.4489 19.3461 82.3123 19.0535 82.2343 18.6634C82.2343 18.3513 82.2538 18.0782 82.2928 17.8441C82.3318 17.571 82.3903 17.2979 82.4684 17.0248C82.5074 16.9858 82.6829 16.6152 82.995 15.9129C83.3072 15.1717 83.7948 14.528 84.4581 13.9818C84.5361 13.9037 84.5946 13.8647 84.6336 13.8647C84.7116 13.8257 84.7897 13.7672 84.8677 13.6892C85.5309 13.338 86.1747 13.3185 86.7989 13.6306C87.111 13.7867 87.306 13.9623 87.3841 14.1573C87.4231 14.2744 87.5011 14.3329 87.6182 14.3329C87.6962 14.3329 87.7547 14.3524 87.7937 14.3914C87.8327 14.3914 87.8717 14.3914 87.9108 14.3914C88.2229 14.5475 88.3789 14.8206 88.3789 15.2107L88.2034 15.9129C88.0863 16.4591 87.9498 17.0053 87.7937 17.5515C87.6767 18.0977 87.5401 18.6439 87.3841 19.1901C87.3451 19.3461 87.3256 19.5022 87.3256 19.6582C87.3256 19.7753 87.306 19.9118 87.267 20.0679C87.3451 20.0289 87.4426 19.9509 87.5596 19.8338C87.8327 19.5997 88.1058 19.3071 88.3789 18.956C88.691 18.5659 88.9641 18.2147 89.1982 17.9026C89.4323 17.5515 89.6274 17.2589 89.7834 17.0248C89.9785 16.7517 90.0955 16.5957 90.1345 16.5567C90.2906 16.2836 90.4466 16.03 90.6027 15.7959C90.7588 15.5228 90.8953 15.2887 91.0123 15.0937H91.1294C91.1684 15.0937 91.2659 15.1327 91.422 15.2107V15.2692H91.4805C91.4805 15.2692 91.5 15.2887 91.539 15.3277ZM86.6818 14.9766C86.7599 14.8206 86.7989 14.7425 86.7989 14.7425C86.7208 14.6645 86.6233 14.5865 86.5063 14.5085C86.3892 14.4304 86.2917 14.3524 86.2137 14.2744C85.9016 14.4304 85.609 14.684 85.3359 15.0351C84.6726 15.9325 84.185 17.0053 83.8729 18.2538C83.8729 18.5269 83.8533 18.7414 83.8143 18.8975C83.8924 18.8585 83.9509 18.839 83.9899 18.839C84.0679 18.7609 84.1459 18.7024 84.224 18.6634C84.4971 18.4293 84.7312 18.1757 84.9262 17.9026C85.1213 17.5905 85.3164 17.2784 85.5114 16.9663C85.7065 16.6542 85.9016 16.3226 86.0966 15.9715C86.2917 15.6203 86.4868 15.2887 86.6818 14.9766ZM97.8551 15.3863C97.9722 15.5033 98.0307 15.6789 98.0307 15.9129C97.9917 16.2251 97.8746 16.5177 97.6795 16.7908C97.5235 17.0638 97.3674 17.3369 97.2114 17.61C97.0163 17.9221 96.8213 18.2343 96.6262 18.5464C96.4701 18.8195 96.2946 19.1121 96.0995 19.4242C95.8654 19.7363 95.6313 20.0484 95.3973 20.3605C95.1632 20.6336 94.9096 20.9067 94.6365 21.1798C94.5585 21.2578 94.4804 21.3163 94.4024 21.3553C94.3634 21.3944 94.3049 21.4529 94.2268 21.5309L93.7002 21.882C93.3881 22.0381 93.115 22.1161 92.8809 22.1161H92.6468H92.4127H92.3542C92.2762 22.1161 92.1201 22.0771 91.886 21.9991C91.847 21.9991 91.8275 21.9991 91.8275 21.9991C91.8275 21.9601 91.808 21.9405 91.769 21.9405C91.4569 21.7845 91.2228 21.5699 91.0667 21.2968C90.9107 20.9847 90.7936 20.6726 90.7156 20.3605C90.6376 20.0094 90.5986 19.6778 90.5986 19.3656C90.5596 19.0535 90.5401 18.7804 90.5401 18.5464C90.5401 18.2733 90.5596 17.9612 90.5986 17.61C90.6376 17.2589 90.6766 16.9273 90.7156 16.6152C90.7546 16.3031 90.7936 16.0495 90.8327 15.8544C90.8717 15.6203 90.8912 15.5033 90.8912 15.5033C91.0863 14.1378 91.3398 12.8114 91.6519 11.5239C91.9641 10.1975 92.3347 8.87099 92.7638 7.54453L94.3439 2.62881C94.3439 2.5898 94.3634 2.55079 94.4024 2.51177C94.4414 2.43375 94.5194 2.35572 94.6365 2.27769C94.7535 2.16065 94.9876 2.14114 95.3387 2.21917C95.7679 2.2972 96.041 2.43375 96.158 2.62881C96.2751 2.78487 96.3141 2.92142 96.2751 3.03846C95.963 4.16985 95.6508 5.28174 95.3387 6.37412C95.0656 7.4665 94.773 8.57839 94.4609 9.70978C94.0318 11.1533 93.6807 12.5968 93.4076 14.0403C93.1735 15.4838 92.9589 16.9468 92.7638 18.4293C92.7638 18.8195 92.7443 19.1121 92.7053 19.3071V20.0679C92.7053 20.263 92.7443 20.4385 92.8224 20.5946C92.9394 20.7116 93.1735 20.6531 93.5246 20.419C93.7197 20.263 93.8757 20.1264 93.9928 20.0094C94.1488 19.8533 94.2659 19.7363 94.3439 19.6582C94.4219 19.5802 94.4804 19.5022 94.5194 19.4242C94.5975 19.3461 94.656 19.2876 94.695 19.2486C95.0851 18.7804 95.4168 18.2928 95.6899 17.7856C95.963 17.2784 96.2556 16.7517 96.5677 16.2055L97.0358 15.2692C97.0748 15.1912 97.1529 15.1327 97.2699 15.0937C97.426 15.0156 97.621 15.1132 97.8551 15.3863Z" fill="#EA4524"/>
</svg>
